<svg width="1776" height="433" viewBox="0 0 1776 433" fill="none" xmlns="http://www.w3.org/2000/svg">
<path d="M144.282 339.536C126.059 339.536 109.105 336.307 93.42 329.848C77.7347 323.159 64.01 314.047 52.246 302.514C40.7127 290.75 31.6013 277.025 24.912 261.34C18.4533 245.424 15.224 228.355 15.224 210.132C15.224 191.679 18.4533 174.609 24.912 158.924C31.6013 143.239 40.7127 129.629 52.246 118.096C64.01 106.332 77.7347 97.2207 93.42 90.762C109.105 84.0727 126.059 80.728 144.282 80.728C157.199 80.728 169.194 82.3426 180.266 85.572C191.338 88.8013 201.487 93.4147 210.714 99.412C219.941 105.409 228.36 112.675 235.972 121.21L209.33 147.16C203.794 140.471 197.797 134.935 191.338 130.552C184.879 125.939 177.729 122.479 169.886 120.172C162.274 117.865 153.855 116.712 144.628 116.712C128.02 116.712 112.796 120.633 98.956 128.476C85.116 136.088 74.044 146.814 65.74 160.654C57.6667 174.494 53.63 190.987 53.63 210.132C53.63 229.047 57.6667 245.539 65.74 259.61C74.044 273.45 85.116 284.291 98.956 292.134C112.796 299.746 128.02 303.552 144.628 303.552C159.621 303.552 172.885 300.438 184.418 294.21C196.182 287.982 206.562 279.447 215.558 268.606L242.892 294.902C235.28 303.898 226.399 311.741 216.25 318.43C206.101 325.119 195.029 330.309 183.034 334C171.039 337.691 158.122 339.536 144.282 339.536ZM283.801 334V86.264H433.965V122.248H321.861V298.016H433.965V334H283.801ZM304.561 228.124V192.14H422.893V228.124H304.561ZM479.44 334V86.264H524.42L636.524 268.26H638.6L636.524 220.512V86.264H674.238V334H634.794L517.154 142.662H515.078L517.154 190.41V334H479.44ZM778.957 334V106.678H816.671V334H778.957ZM709.411 122.248V86.264H885.871V122.248H709.411ZM876.948 334L970.368 86.264H1013.62L1107.38 334H1065.52L1002.55 159.27L993.204 130.898H991.128L981.786 159.27L918.814 334H876.948ZM989.052 270.336V235.044H1046.49L1058.94 270.336H989.052ZM921.582 270.336L934.038 235.044H989.052V270.336H921.582ZM1223.9 339.536C1205.22 339.536 1188.84 335.499 1174.77 327.426C1160.93 319.122 1150.09 307.473 1142.25 292.48C1134.4 277.256 1130.48 259.379 1130.48 238.85V86.264H1168.2V240.926C1168.2 252.921 1170.27 263.647 1174.42 273.104C1178.58 282.561 1184.8 290.058 1193.11 295.594C1201.41 300.899 1211.79 303.552 1224.25 303.552C1236.47 303.552 1246.74 300.899 1255.04 295.594C1263.35 290.058 1269.57 282.561 1273.73 273.104C1277.88 263.647 1279.95 252.921 1279.95 240.926V86.264H1317.67V238.85C1317.67 258.687 1313.86 276.218 1306.25 291.442C1298.87 306.666 1288.14 318.545 1274.07 327.08C1260.23 335.384 1243.51 339.536 1223.9 339.536ZM1369.78 334V86.264H1456.63C1471.85 86.264 1485.46 89.4933 1497.46 95.952C1509.45 102.411 1518.91 111.291 1525.83 122.594C1532.98 133.897 1536.55 147.045 1536.55 162.038C1536.55 171.957 1534.48 181.414 1530.33 190.41C1526.4 199.406 1520.64 207.479 1513.03 214.63C1505.64 221.55 1496.53 226.971 1485.69 230.892C1475.08 234.813 1463.09 236.774 1449.71 236.774H1390.54V201.828H1455.59C1463.43 201.828 1470.47 200.098 1476.7 196.638C1483.15 193.178 1488.34 188.449 1492.27 182.452C1496.19 176.224 1498.15 169.304 1498.15 161.692C1498.15 155.003 1496.53 148.659 1493.3 142.662C1490.07 136.434 1485.35 131.475 1479.12 127.784C1473.12 123.863 1465.74 121.902 1456.97 121.902H1407.84V334H1369.78ZM1427.22 220.858L1470.47 220.166L1547.97 331.924V334H1504.03L1427.22 220.858ZM1637.1 334V201.828H1674.81V334H1637.1ZM1553.36 86.264H1598.34L1654.74 179.684H1656.82L1711.83 86.264H1757.16L1674.81 219.128H1637.1L1553.36 86.264Z" fill="black"/>
</svg>
